Coordinates
version=1
nRows=22
nColumns=24
inDegrees=yes

Units are S.I. units (second, meters, Newtons, ...)
Angles are in degrees.

endheader
time	pelvis_tilt	pelvis_list	pelvis_rotation	pelvis_tx	pelvis_ty	pelvis_tz	hip_flexion_r	hip_adduction_r	hip_rotation_r	knee_angle_r	ankle_angle_r	subtalar_angle_r	mtp_angle_r	hip_flexion_l	hip_adduction_l	hip_rotation_l	knee_angle_l	ankle_angle_l	subtalar_angle_l	mtp_angle_l	lumbar_extension	lumbar_bending	lumbar_rotation
      4.94500000	     -1.56790337	      4.09796565	      2.38043109	      0.88420789	      1.00150222	     -0.22604208	     24.19010100	     -2.09808640	      2.29056201	     -6.53117895	     12.02941140	     -5.12236323	      0.00000000	    -16.35094941	      6.88802943	      5.33457559	     -6.09425389	     17.53392259	     -7.03561508	      0.00000000	    -11.21543778	     -4.35005302	     -9.67582414
      4.95000000	     -1.49364359	      4.01062210	      2.37088009	      0.89135660	      1.00093467	     -0.22541679	     24.26967713	     -1.90893861	      2.13904153	     -7.49978909	     12.06257906	     -4.70845084	      0.00000000	    -16.39349674	      6.72524643	      4.93720108	     -6.98227218	     17.78103904	     -6.24784088	      0.00000000	    -11.24458076	     -4.24652948	     -9.59281275
      4.95500000	     -1.42016166	      3.90487062	      2.36985815	      0.89853510	      1.00044184	     -0.22479364	     24.34188611	     -1.71085291	      1.97907671	     -8.48573592	     11.95237004	     -4.31889153	      0.00000000	    -16.40829226	      6.53772112	      4.50113816	     -7.91476797	     17.98218209	     -5.44863427	      0.00000000	    -11.27027970	     -4.11889618	     -9.51734152
      4.96000000	     -1.35544224	      3.76252946	      2.36911928	      0.90575821	      1.00002434	     -0.22417725	     24.41234447	     -1.48466284	      1.82677685	     -9.46377019	     11.69546909	     -3.96749155	      0.00000000	    -16.39453952	      6.30874338	      4.04691431	     -8.87821949	     18.13271565	     -4.65372939	      0.00000000	    -11.28021092	     -3.94747512	     -9.43633742
      4.96500000	     -1.29518992	      3.59121502	      2.36953212	      0.91297508	      0.99969837	     -0.22355277	     24.48262427	     -1.23713221	      1.67670904	    -10.42483479	     11.31452143	     -3.67016708	      0.00000000	    -16.34313007	      6.04411159	      3.56321237	     -9.89493763	     18.24458503	     -3.84154203	      0.00000000	    -11.28767822	     -3.73855598	     -9.34178526
      4.97000000	     -1.24626175	      3.38299909	      2.36101989	      0.92020766	      0.99950051	     -0.22291421	     24.55968336	     -0.95731610	      1.50589120	    -11.35451914	     10.78862591	     -3.44183110	      0.00000000	    -16.27227055	      5.73938170	      3.09590612	    -10.91034912	     18.23914622	     -3.08281341	      0.00000000	    -11.27899976	     -3.49031581	     -9.24181684
      4.97500000	     -1.20095013	      3.14752227	      2.36623284	      0.92738888	      0.99938886	     -0.22230314	     24.64219376	     -0.66210289	      1.37793770	    -12.27464881	     10.25359800	     -3.30693585	      0.00000000	    -16.14019844	      5.39730809	      2.55418693	    -12.02181418	     18.24352652	     -2.27095653	      0.00000000	    -11.28088594	     -3.20458062	     -9.11945439
      4.98000000	     -1.16841941	      2.88135172	      2.36559059	      0.93460020	      0.99939659	     -0.22170417	     24.73205170	     -0.34076651	      1.25617526	    -13.17094583	      9.69663668	     -3.25648083	      0.00000000	    -15.98069706	      5.02202991	      2.02476035	    -13.14693399	     18.12481420	     -1.52281198	      0.00000000	    -11.25992176	     -2.88447577	     -8.99585843
      4.98500000	     -1.13966810	      2.61046708	      2.36494655	      0.94178565	      0.99950356	     -0.22111079	     24.82809088	     -0.01724206	      1.17087537	    -14.06940425	      9.19228171	     -3.29371959	      0.00000000	    -15.78141153	      4.63458957	      1.46797397	    -14.32422244	     17.93223925	     -0.78333001	      0.00000000	    -11.24162015	     -2.55868305	     -8.87230850
      4.99000000	     -1.11386412	      2.33589315	      2.37539119	      0.94900124	      0.99972219	     -0.22055588	     24.91895836	      0.29971694	      1.07836266	    -14.96559110	      8.78857183	     -3.36349076	      0.00000000	    -15.55318463	      4.23573712	      0.91921919	    -15.53614737	     17.60505139	     -0.10868994	      0.00000000	    -11.21390413	     -2.23204715	     -8.75017169
      4.99500000	     -1.08672610	      2.07605275	      2.38722880	      0.95620221	      0.99998478	     -0.22003418	     25.00958382	      0.59909835	      1.01284032	    -15.88345666	      8.53939848	     -3.47295328	      0.00000000	    -15.28328994	      3.84426641	      0.34638306	    -16.81760404	     17.21534373	      0.54649640	      0.00000000	    -11.19062806	     -1.91137658	     -8.63360791
      5.00000000	     -1.06018234	      1.83256956	      2.39707381	      0.96341098	      1.00029518	     -0.21953307	     25.09780835	      0.87970104	      0.94499068	    -16.81957456	      8.44544096	     -3.57769692	      0.00000000	    -14.97910466	      3.46347712	     -0.22558758	    -18.14664531	     16.71799787	      1.14073363	      0.00000000	    -11.16801196	     -1.61035832	     -8.52842030
      5.00500000	     -1.03654823	      1.61322281	      2.40359479	      0.97062394	      1.00063913	     -0.21906453	     25.18105309	      1.13079638	      0.84984940	    -17.76194014	      8.50749408	     -3.64585998	      0.00000000	    -14.62779817	      3.09850181	     -0.81938063	    -19.54059305	     16.11028953	      1.69896953	      0.00000000	    -11.13969855	     -1.32575202	     -8.43462864
      5.01000000	     -0.99869886	      1.43133408	      2.42225482	      0.97788341	      1.00104558	     -0.21861145	     25.22310947	      1.33527388	      0.69331048	    -18.67820988	      8.72970439	     -3.67026115	      0.00000000	    -14.25059251	      2.75656763	     -1.41313811	    -20.98929322	     15.33537447	      2.17396375	      0.00000000	    -11.11878657	     -1.09269499	     -8.34238475
      5.01500000	     -0.96142119	      1.26801220	      2.43570471	      0.98513356	      1.00146988	     -0.21816177	     25.24878475	      1.51776571	      0.50774050	    -19.57673508	      9.07155530	     -3.63259604	      0.00000000	    -13.82237584	      2.41982471	     -2.03560670	    -22.50486962	     14.43942472	      2.60320927	      0.00000000	    -11.09897245	     -0.87353884	     -8.26080193
      5.02000000	     -0.95930608	      1.11550160	      2.43671587	      0.99233502	      1.00186795	     -0.21772994	     25.29149050	      1.68412255	      0.31854338	    -20.44477496	      9.49935547	     -3.49311565	      0.00000000	    -13.29640612	      2.08293734	     -2.68405149	    -24.10269736	     13.42056527	      2.99460130	      0.00000000	    -11.04715160	     -0.65900979	     -8.18766068
      5.02500000	     -0.95393407	      0.98705183	      2.44271895	      0.99955950	      1.00230347	     -0.21725803	     25.29088443	      1.82454542	      0.07800070	    -21.24498308	     10.00113200	     -3.33817068	      0.00000000	    -12.72908126	      1.74728886	     -3.35260401	    -25.74499636	     12.20856727	      3.29520222	      0.00000000	    -10.99009327	     -0.48578937	     -8.11176141
      5.03000000	     -1.09613292	      0.93176558	      2.45933331	      1.00669498	      1.00256066	     -0.21676350	     25.42547313	      1.88299576	     -0.16358481	    -22.00588843	     10.56484868	     -3.15519396	      0.00000000	    -11.94175439	      1.47413610	     -3.99910297	    -27.45668770	     10.80271257	      3.47617402	      0.00000000	    -10.76506012	     -0.41461542	     -8.07000788
      5.03500000	     -1.00824202	      0.76092679	      2.46597972	      1.01390883	      1.00316196	     -0.21619007	     25.23656400	      2.07838245	     -0.41803409	    -22.61611524	     11.07865461	     -3.03868821	      0.00000000	    -11.37385028	      1.03909733	     -4.71719156	    -29.17271136	      9.23430838	      3.59881550	      0.00000000	    -10.80466163	     -0.20542304	     -7.97595687
      5.04000000	     -0.99793634	      0.60850915	      2.45604126	      1.02107024	      1.00368948	     -0.21559376	     25.09557820	      2.25691548	     -0.64709009	    -23.16218193	     11.61273611	     -2.85709219	      0.00000000	    -10.68037749	      0.60461444	     -5.45080332	    -30.92017527	      7.47796241	      3.67772030	      0.00000000	    -10.75742276	     -0.01558740	     -7.89580040
      5.04500000	     -1.09042380	      0.49607347	      2.45553167	      1.02816287	      1.00406973	     -0.21492605	     25.02889350	      2.39921758	     -0.84962140	    -23.64161433	     12.18287349	     -2.70462239	      0.00000000	     -9.83265643	      0.18665988	     -6.17710775	    -32.69595787	      5.54256207	      3.64110704	      0.00000000	    -10.58769453	      0.10625851	     -7.83101999
      5.05000000	     -1.05353018	      0.30008495	      2.47629075	      1.03518814	      1.00468882	     -0.21421985	     24.76540983	      2.63613332	     -1.06800308	    -23.98735908	     12.60536678	     -2.68690869	      0.00000000	     -9.09128163	     -0.35160777	     -6.86966796	    -34.46324515	      3.43314336	      3.50711832	      0.00000000	    -10.59218419	      0.32594831	     -7.74481182
